<?xml version="1.0" standalone="no"?>
<!DOCTYPE svg PUBLIC "-//W3C//DTD SVG 20010904//EN"
 "http://www.w3.org/TR/2001/REC-SVG-20010904/DTD/svg10.dtd">
<svg version="1.0" xmlns="http://www.w3.org/2000/svg"
 width="700.000000pt" height="700.000000pt" viewBox="0 0 700.000000 700.000000"
 preserveAspectRatio="xMidYMid meet">
<metadata>
Created by potrace 1.11, written by Peter Selinger 2001-2013
</metadata>
<g transform="translate(0.000000,700.000000) scale(0.100000,-0.100000)"
fill="#000000" stroke="none">
<path d="M1048 6738 l-3 -263 -255 -1 c-140 -1 -257 -2 -260 -3 -3 0 -5 -117
-5 -258 l0 -258 -262 -3 -263 -2 0 -2975 0 -2975 2975 0 2975 0 0 263 0 263
260 0 c165 -1 261 3 263 9 2 5 3 124 2 263 l-1 252 263 0 263 0 0 2975 0 2975
-2975 0 -2975 0 -2 -262z m5827 153 c20 -1 20 -8 19 -2863 l0 -2862 -25 -6
c-19 -4 -339 -5 -384 -1 -7 1 -10 848 -10 2652 0 1458 -2 2654 -5 2658 -3 4
-1200 7 -2660 6 l-2655 0 0 195 c-1 107 1 202 3 210 3 13 327 15 2850 14 1566
-1 2856 -2 2867 -3z m-5825 -731 l0 -210 -210 0 -210 0 0 210 0 210 210 0 210
0 0 -210z m5318 -2397 l-3 -2607 -195 -1 c-107 0 -201 1 -207 3 -10 3 -13 492
-13 2398 l0 2394 -2394 0 c-1906 0 -2395 3 -2398 13 -4 10 -3 378 1 400 0 4
1173 7 2606 7 l2605 0 -2 -2607z m-5853 2078 c7 -1 10 -893 10 -2658 l0 -2657
2660 -1 2659 0 1 -199 c0 -129 -4 -203 -11 -210 -7 -8 -845 -11 -2860 -9
-1567 1 -2853 2 -2859 2 -11 1 -14 5708 -3 5726 5 8 345 13 403 6z m528 0 c4
0 7 -1079 7 -2396 l0 -2395 2397 -2 2398 -3 -1 -205 0 -205 -2607 -3 -2607 -2
0 2604 c0 2431 1 2605 17 2608 15 3 377 2 396 -1z m4792 -3 c12 -7 14 -4663 2
-4674 -9 -10 -4655 -11 -4670 -2 -9 5 -12 593 -12 2340 0 1283 3 2335 6 2338
10 7 4662 6 4674 -2z m535 -4998 l0 -210 -210 0 -210 0 0 210 0 210 210 0 210
0 0 -210z"/>
<path d="M1953 4211 c-5 -3 -31 -97 -58 -208 l-49 -203 -143 0 -143 0 0 -30 0
-30 135 0 c135 0 135 0 131 -22 -2 -13 -25 -106 -51 -208 -25 -102 -47 -194
-49 -205 -3 -19 -11 -20 -124 -20 l-122 0 0 -33 0 -33 106 2 c58 1 108 -2 111
-5 4 -3 -15 -95 -42 -203 -26 -108 -48 -203 -49 -212 -1 -11 7 -16 28 -16 29
1 29 1 63 140 18 77 35 152 38 167 3 15 10 39 15 53 6 15 10 37 10 51 0 23 3
24 70 25 263 1 382 0 386 -4 3 -2 -7 -51 -21 -108 -15 -57 -29 -113 -31 -124
-2 -11 -13 -57 -25 -103 -12 -46 -18 -86 -15 -89 13 -14 44 -12 56 2 7 8 10
15 6 15 -3 0 -1 11 4 25 5 14 12 36 14 48 9 48 77 331 81 335 2 2 67 3 144 3
l141 0 0 29 c0 34 11 32 -148 32 -62 0 -114 4 -117 8 -2 4 0 24 6 45 6 20 12
45 14 54 2 9 19 81 39 161 20 80 38 155 41 168 5 21 9 22 125 22 73 0 120 4
121 10 6 47 10 45 -108 48 -81 2 -113 6 -113 15 0 7 22 99 49 205 26 106 45
194 42 196 -3 2 -17 3 -31 2 -24 -1 -27 -9 -76 -206 l-51 -205 -227 -3 -226
-2 6 27 c3 16 13 55 21 88 8 33 17 67 19 75 1 8 13 53 24 100 33 133 33 128 6
128 -13 0 -28 -3 -33 -7z m350 -648 c-23 -98 -48 -201 -54 -229 l-11 -51 -224
0 c-156 0 -224 3 -224 11 0 6 23 109 52 229 l52 217 226 0 227 0 -44 -177z"/>
<path d="M2929 4211 c-1 -3 -3 -326 -3 -717 l-2 -711 32 0 c21 0 34 6 36 16 2
9 4 166 3 348 0 215 3 334 10 336 5 1 168 2 362 2 321 -1 352 0 356 15 12 47
9 47 -360 48 -191 0 -353 1 -358 1 -7 1 -10 102 -9 294 1 160 2 295 3 300 0 4
192 7 426 7 l425 0 0 33 0 33 -460 0 c-253 0 -461 -2 -461 -5z"/>
<path d="M4130 3501 l0 -718 33 1 32 1 5 643 5 643 161 -273 c460 -779 433
-735 459 -735 21 0 39 24 132 181 58 99 133 226 166 281 33 55 68 114 77 130
10 17 55 93 100 170 46 77 97 164 114 193 l31 53 3 -644 2 -645 33 2 32 2 0
714 0 714 -30 2 c-29 1 -36 -9 -230 -338 -110 -186 -211 -358 -225 -382 -122
-211 -206 -343 -212 -333 -664 1120 -621 1050 -655 1053 l-33 2 0 -717z"/>
</g>
</svg>
