<?xml version="1.0" standalone="no"?>
<!DOCTYPE svg PUBLIC "-//W3C//DTD SVG 20010904//EN"
 "http://www.w3.org/TR/2001/REC-SVG-20010904/DTD/svg10.dtd">
<svg version="1.0" xmlns="http://www.w3.org/2000/svg"
 width="700.000000pt" height="700.000000pt" viewBox="0 0 700.000000 700.000000"
 preserveAspectRatio="xMidYMid meet">
<metadata>
Created by potrace 1.11, written by Peter Selinger 2001-2013
</metadata>
<g transform="translate(0.000000,700.000000) scale(0.100000,-0.100000)"
fill="#000000" stroke="none">
<path d="M1050 6735 l0 -265 -260 0 -260 0 0 -260 0 -260 -265 0 -265 0 0
-2975 0 -2975 2975 0 2975 0 0 265 0 265 260 0 260 0 0 260 0 260 265 0 265 0
0 2975 0 2975 -2975 0 -2975 0 0 -265z m5840 -2710 l0 -2865 -210 0 -210 0 0
2655 0 2655 -2655 0 -2655 0 0 210 0 210 2865 0 2865 0 0 -2865z m-5840 2135
l0 -210 -210 0 -210 0 0 210 0 210 210 0 210 0 0 -210z m5320 -2395 l0 -2605
-210 0 -210 0 0 2395 0 2395 -2395 0 -2395 0 0 210 0 210 2605 0 2605 0 0
-2605z m-5840 -580 l0 -2655 2655 0 2655 0 0 -210 0 -210 -2865 0 -2865 0 0
2865 0 2865 210 0 210 0 0 -2655z m520 260 l0 -2395 2395 0 2395 0 0 -210 0
-210 -2605 0 -2605 0 0 2605 0 2605 210 0 210 0 0 -2395z m4790 55 l0 -2340
-2340 0 -2340 0 0 2340 0 2340 2340 0 2340 0 0 -2340z m530 -2660 l0 -210
-210 0 -210 0 0 210 0 210 210 0 210 0 0 -210z"/>
<path d="M1942 4188 c-5 -18 -29 -113 -53 -210 l-43 -178 -143 0 -143 0 0 -30
0 -30 135 0 c74 0 135 -2 135 -4 0 -5 -100 -418 -106 -438 -5 -16 -20 -18
-125 -18 l-119 0 0 -30 0 -30 114 0 114 0 -49 -197 c-27 -109 -52 -208 -54
-221 -5 -21 -3 -23 26 -20 l32 3 51 215 51 215 228 3 c125 1 227 1 227 -2 0
-2 -22 -96 -50 -210 -27 -114 -50 -211 -50 -216 0 -6 13 -10 29 -10 25 0 30 5
39 43 6 23 29 122 52 220 l43 177 143 0 144 0 0 30 0 30 -135 0 c-74 0 -135 2
-135 4 0 5 99 414 106 439 5 15 20 17 125 17 l119 0 0 30 0 30 -110 0 c-60 0
-110 4 -110 9 0 5 20 92 45 194 25 103 45 193 45 202 0 12 -8 15 -27 13 -28
-3 -29 -6 -78 -208 l-51 -205 -227 -3 c-125 -1 -227 0 -227 3 0 3 23 95 50
205 28 110 50 202 50 205 0 3 -13 5 -30 5 -24 0 -30 -5 -38 -32z m374 -580
c-18 -73 -43 -177 -56 -230 l-24 -98 -223 0 c-172 0 -223 3 -223 13 0 6 23
110 52 230 l52 217 227 0 226 0 -31 -132z"/>
<path d="M2925 4208 c-3 -7 -4 -330 -3 -718 l3 -705 33 -3 32 -3 0 350 0 351
365 0 365 0 0 35 0 35 -365 0 -365 0 0 300 0 300 430 0 430 0 0 35 0 35 -460
0 c-359 0 -462 -3 -465 -12z"/>
<path d="M4130 3501 l0 -721 35 0 35 0 2 646 3 646 299 -506 c255 -432 302
-506 321 -506 20 0 67 74 322 505 l298 504 3 -644 2 -645 35 0 35 0 0 721 0
720 -32 -3 c-31 -3 -42 -21 -347 -536 -199 -337 -318 -528 -322 -520 -608
1029 -623 1053 -657 1056 l-32 3 0 -720z"/>
</g>
</svg>
