<svg xmlns="http://www.w3.org/2000/svg" fill-rule="evenodd" stroke-miterlimit="1.414" viewBox="0 0 4167 4167" clip-rule="evenodd" stroke-linejoin="round" height="100%" width="100%">
  <g fill="#574ae2">
    <path d="M3541.67 4166.67H0V625h3541.67v3541.67zM62.74 687.89v3415.89h3416.2V687.89H62.74z"/>
    <path d="M4166.67 3541.67H625V0h3541.67v3541.67zM687.74 62.89v3415.89h3416.2V62.89H687.74z"/>
    <path d="M3854.17 3854.17H312.5V312.5h3541.67v3541.67zM375.24 375.39v3415.89h3416.2V375.39H375.24z"/>
  </g>
  <g fill-rule="nonzero">
    <path
    fill="#b54500"
    d="M1579.93 1940.53h-145.2l-66 272.4h162v36h-171.6l-62.4 260.4h-37.2l63.6-260.4h-271.2l-62.4 260.4h-37.2l63.6-260.4h-135.6v-36h144l66-272.4h-160.8v-34.8h169.2l61.2-248.4h37.2l-61.2 248.4h270l61.2-248.4h37.2l-61.2 248.4h136.8v34.8zm-248.4 272.4l66-272.4h-270l-66 272.4h270z"/>
    <path fill="#aba69f" d="M1740.73 2509.33v-852h552v38.4h-510v360h433.2v37.2h-433.2v416.4h-42z"/>
    <path fill="#aba69f" d="M3244.33 2509.33v-770.4l-357.6 604.8h-28.8l-357.6-604.8v770.4h-42v-852h38.4l375.6 634.8 375.6-634.8h38.4v852h-42z"/>
  </g>
</svg>
