<?xml version="1.0" encoding="UTF-8" standalone="no"?><!DOCTYPE svg PUBLIC "-//W3C//DTD SVG 1.1//EN" "http://www.w3.org/Graphics/SVG/1.1/DTD/svg11.dtd"><svg width="100%" height="100%" viewBox="0 0 373 375" version="1.1" xmlns="http://www.w3.org/2000/svg" xmlns:xlink="http://www.w3.org/1999/xlink" xml:space="preserve" style="fill-rule:evenodd;clip-rule:evenodd;stroke-linejoin:round;stroke-miterlimit:1.41421;"><g><path d="M143.09,176.076l-12.486,0l-5.675,21.792l13.93,0l0,2.88l-14.755,0l-5.366,20.832l-3.198,0l5.468,-20.832l-23.319,0l-5.366,20.832l-3.198,0l5.468,-20.832l-11.659,0l0,-2.88l12.382,0l5.675,-21.792l-13.827,0l0,-2.784l14.549,0l5.262,-19.872l3.199,0l-5.262,19.872l23.216,0l5.262,-19.872l3.199,0l-5.262,19.872l11.763,0l0,2.784Zm-21.359,21.792l5.675,-21.792l-23.216,0l-5.676,21.792l23.217,0Z" style="fill:#ffb686;fill-rule:nonzero;"/><path d="M156.916,221.58l0,-68.16l47.464,0l0,3.072l-43.852,0l0,28.8l37.249,0l0,2.976l-37.249,0l0,33.312l-3.612,0Z" style="fill:#6a7f9d;fill-rule:nonzero;"/><path d="M286.205,221.58l0,-61.632l-30.749,48.384l-2.476,0l-30.749,-48.384l0,61.632l-3.611,0l0,-68.16l3.302,0l32.296,50.784l32.296,-50.784l3.302,0l0,68.16l-3.611,0Z" style="fill:#6a7f9d;fill-rule:nonzero;"/></g><g><path d="M341.625,342.375l-310.5,0l0,-309.75l310.5,0l0,309.75Zm-305,-304.25l0,298.75l299.5,0l0,-298.75l-299.5,0Z" style="fill:#852be1;"/><path d="M372.75,309.75l-310.5,0l0,-309.75l310.5,0l0,309.75Zm-305,-304.25l0,298.75l299.5,0l0,-298.75l-299.5,0Z" style="fill:#852be1;"/><path d="M310.5,375l-310.5,0l0,-309.75l310.5,0l0,309.75Zm-305,-304.25l0,298.75l299.5,0l0,-298.75l-299.5,0Z" style="fill:#852be1;"/></g></svg>