<?xml version="1.0" encoding="UTF-8" standalone="no"?><!DOCTYPE svg PUBLIC "-//W3C//DTD SVG 1.1//EN" "http://www.w3.org/Graphics/SVG/1.1/DTD/svg11.dtd"><svg width="100%" height="100%" viewBox="0 0 4167 4167" version="1.1" xmlns="http://www.w3.org/2000/svg" xmlns:xlink="http://www.w3.org/1999/xlink" xml:space="preserve" style="fill-rule:evenodd;clip-rule:evenodd;stroke-linejoin:round;stroke-miterlimit:1.41421;"><g><path d="M3541.67,4166.67l-3541.67,0l0,-3541.67l3541.67,0l0,3541.67Zm-3478.93,-3478.78l0,3415.89l3416.2,0l0,-3415.89l-3416.2,0Z" style="fill:#574ae2;"/><path d="M4166.67,3541.67l-3541.67,0l0,-3541.67l3541.67,0l0,3541.67Zm-3478.93,-3478.78l0,3415.89l3416.2,0l0,-3415.89l-3416.2,0.001Z" style="fill:#574ae2;"/><path d="M3854.17,3854.17l-3541.67,0l0,-3541.67l3541.67,0l0,3541.67Zm-3478.93,-3478.78l0,3415.89l3416.2,0l0,-3415.89l-3416.2,0Z" style="fill:#574ae2;"/></g><g><path d="M1579.93,1940.53l-145.2,0l-66,272.4l162,0l0,36l-171.6,0l-62.4,260.4l-37.2,0l63.6,-260.4l-271.2,0l-62.4,260.4l-37.2,0l63.6,-260.4l-135.6,0l0,-36l144,0l66,-272.4l-160.8,0l0,-34.8l169.2,0l61.2,-248.4l37.2,0l-61.2,248.4l270,0l61.2,-248.4l37.2,0l-61.2,248.4l136.8,0l0,34.8Zm-248.4,272.4l66,-272.4l-270,0l-66,272.4l270,0Z" style="fill:#b54500;fill-rule:nonzero;"/><path d="M1740.73,2509.33l0,-852l552,0l0,38.4l-510,0l0,360l433.2,0l0,37.2l-433.2,0l0,416.4l-42,0Z" style="fill:#aba69f;fill-rule:nonzero;"/><path d="M3244.33,2509.33l0,-770.4l-357.6,604.8l-28.8,0l-357.6,-604.8l0,770.4l-42,0l0,-852l38.4,0l375.6,634.8l375.6,-634.8l38.4,0l0,852l-42,0Z" style="fill:#aba69f;fill-rule:nonzero;"/></g></svg>