<?xml version="1.0" standalone="no"?>
<!DOCTYPE svg PUBLIC "-//W3C//DTD SVG 20010904//EN"
 "http://www.w3.org/TR/2001/REC-SVG-20010904/DTD/svg10.dtd">
<svg version="1.0" xmlns="http://www.w3.org/2000/svg"
 width="750.000000pt" height="750.000000pt" viewBox="0 0 750.000000 750.000000"
 preserveAspectRatio="xMidYMid meet">
<metadata>
Created by potrace 1.11, written by Peter Selinger 2001-2013
</metadata>
<g transform="translate(0.000000,750.000000) scale(0.100000,-0.100000)"
fill="#000000" stroke="none">
<path d="M1267 7493 c-2 -5 -3 -151 -3 -325 l1 -318 -30 -1 c-16 0 -151 0
-300 0 -279 0 -310 -2 -298 -22 10 -17 10 -227 -1 -227 -5 0 -4 -6 1 -12 13
-19 9 -378 -5 -386 -6 -4 -146 -7 -311 -7 l-301 0 0 -3097 0 -3098 3105 0
3105 0 0 325 0 325 23 1 c12 0 151 1 310 1 257 1 287 2 288 17 0 9 1 155 2
326 l2 310 300 1 c165 1 305 2 310 3 7 1 10 1026 10 3094 l0 3092 -3102 3
c-1706 1 -3103 -1 -3106 -5z m6098 -3090 c0 -1980 -3 -2984 -10 -2986 -5 -2
-120 -3 -255 -3 l-245 1 -2 2695 c-1 1482 -2 2705 -2 2716 l-1 22 -2735 -2
c-1817 -1 -2735 2 -2736 9 -4 29 -5 512 -1 523 3 10 607 12 2996 10 l2991 -3
0 -2982z m-6105 2328 c3 0 5 -121 5 -268 l0 -268 -248 0 c-157 0 -251 3 -256
10 -7 8 -9 528 -2 531 3 1 496 -3 501 -5z m5480 0 c3 0 4 -1197 4 -2658 l-2
-2658 -243 -1 c-134 0 -250 2 -256 4 -10 3 -13 490 -13 2391 l0 2386 -2427 0
-2428 0 0 270 0 271 2680 -2 c1474 0 2682 -2 2685 -3z m-6102 -658 c4 -6 6
-159 5 -340 -2 -180 -3 -334 -3 -340 0 -7 0 -60 0 -118 0 -58 0 -112 0 -120 0
-8 0 -62 0 -120 0 -58 0 -112 0 -120 0 -8 0 -62 0 -120 0 -58 0 -113 0 -122 0
-10 1 -279 3 -598 1 -320 -2 -586 -7 -592 -5 -8 -5 -13 0 -13 11 0 11 -211 0
-228 -4 -7 -4 -12 1 -12 10 0 10 -216 0 -226 -3 -4 -3 -12 0 -18 10 -16 9
-226 -1 -226 -5 0 -4 -6 1 -12 5 -8 7 -262 6 -598 -2 -322 -3 -591 -3 -597 0
-7 0 -60 0 -118 0 -58 0 -112 0 -120 0 -8 0 -62 0 -120 0 -58 0 -111 0 -117 0
-7 1 -105 3 -218 l2 -205 2735 -1 2735 -2 2 -271 2 -271 -2994 0 -2995 0 0
2984 c0 2058 3 2985 10 2988 6 2 119 3 251 3 170 0 242 -3 247 -12z m619 4 c4
-5 9 -1074 9 -2375 1 -1302 2 -2374 3 -2382 1 -13 276 -15 2424 -15 l2422 0 0
-270 0 -270 -2665 -1 c-1466 -1 -2672 0 -2681 2 -14 4 -15 252 -14 2662 1
1461 3 2657 3 2657 215 2 493 -2 499 -8z m4861 -2327 l0 -2335 -2371 0 -2372
0 0 2330 c-1 1282 2 2332 6 2335 4 3 1071 5 2372 5 l2365 0 0 -2335z m623
-2480 c3 -176 -1 -493 -6 -498 -4 -4 -119 -7 -256 -7 l-249 -1 0 267 c0 146 2
268 4 270 3 2 117 4 255 4 l251 0 1 -35z"/>
<path d="M3286 4430 l-129 -5 1 -665 c0 -366 1 -671 1 -677 1 -8 15 -13 36
-13 l35 0 0 330 c0 182 3 330 8 331 4 1 171 2 372 3 l365 1 2 28 c1 19 -3 27
-15 28 -9 1 -172 3 -362 4 -190 1 -351 3 -357 4 -10 1 -13 65 -13 286 l0 285
440 0 440 0 0 30 0 30 -302 1 c-167 0 -323 1 -348 2 -25 1 -103 0 -174 -3z"/>
<path d="M2154 4422 c2 -4 -4 -31 -14 -60 -10 -29 -19 -55 -19 -57 -1 -3 -1
-6 -2 -7 0 -2 -2 -12 -3 -23 -4 -27 -58 -229 -63 -235 -2 -2 -68 -5 -145 -5
l-141 0 -4 -28 c-4 -31 -17 -29 147 -29 63 0 118 -2 122 -4 3 -2 -7 -53 -23
-112 -16 -59 -31 -116 -33 -127 -2 -11 -9 -40 -16 -65 -7 -25 -13 -49 -14 -55
-1 -5 -5 -16 -9 -22 -5 -7 -6 -13 -2 -13 3 0 1 -8 -4 -19 -9 -16 -22 -18 -122
-17 -61 0 -115 -2 -121 -5 -5 -4 -8 -17 -6 -30 3 -24 4 -24 115 -24 97 1 112
-1 109 -15 -10 -32 -28 -106 -32 -125 -2 -11 -19 -77 -38 -147 l-34 -128 33 0
c32 0 32 1 54 83 12 45 24 93 26 107 3 14 18 70 34 125 l28 100 224 1 c123 0
227 -1 231 -3 3 -2 -1 -29 -9 -61 -8 -31 -17 -64 -19 -72 -16 -64 -34 -130
-43 -157 -5 -18 -8 -33 -5 -33 3 0 0 -8 -5 -18 -6 -11 -12 -31 -15 -45 -4 -25
-2 -27 28 -27 31 0 33 2 49 68 9 37 30 119 47 182 17 63 32 123 33 132 2 10 7
21 11 25 4 4 71 8 149 8 l142 0 2 28 c1 15 -3 27 -10 28 -7 0 -69 1 -140 1
-112 1 -127 3 -123 17 3 9 7 27 10 41 3 14 15 59 26 100 11 41 23 84 25 95 3
11 14 57 26 101 l21 82 120 -1 c124 0 141 5 131 42 -4 14 -20 17 -119 16 -63
-1 -114 2 -114 5 0 3 16 66 36 140 20 74 37 140 38 145 1 6 5 19 8 30 21 71
21 75 -16 75 -29 0 -34 -4 -39 -27 -7 -37 -9 -45 -51 -201 -20 -73 -36 -139
-36 -146 0 -8 -6 -16 -12 -18 -19 -6 -446 -4 -452 3 -3 3 6 45 20 94 13 50 26
101 29 115 3 14 14 54 25 90 27 87 26 90 -16 90 -19 0 -33 -3 -30 -8z m407
-448 c3 -2 -7 -52 -23 -111 -17 -59 -31 -117 -33 -128 -2 -11 -4 -20 -5 -20
-1 0 -3 -7 -5 -15 -3 -8 -12 -46 -22 -85 l-18 -70 -225 -1 c-124 -1 -228 1
-232 3 -4 2 -3 14 2 27 4 12 11 36 13 52 3 16 19 79 35 139 26 95 44 167 47
185 3 25 27 27 237 27 123 0 226 -1 229 -3z"/>
<path d="M4391 3750 l0 -680 37 0 37 0 0 601 c0 330 3 603 7 605 3 2 28 -31
54 -73 27 -43 52 -79 56 -81 5 -2 8 -8 8 -13 0 -4 21 -41 47 -81 27 -40 52
-81 58 -90 5 -10 94 -150 197 -311 218 -341 211 -336 276 -233 22 33 65 101
96 149 31 48 56 92 56 97 0 4 4 10 8 12 4 2 26 32 47 68 22 36 43 70 48 75 11
13 77 116 77 120 0 2 34 56 76 122 42 65 88 138 103 162 14 24 35 55 46 68
l20 24 0 -610 -1 -611 36 0 36 0 0 680 0 680 -36 0 c-30 0 -39 -5 -48 -25 -7
-14 -17 -31 -22 -38 -14 -16 -230 -358 -230 -364 0 -2 -5 -9 -10 -16 -6 -7
-26 -37 -45 -67 -19 -30 -39 -62 -45 -70 -5 -8 -68 -106 -139 -218 -71 -112
-131 -205 -134 -208 -4 -4 -51 64 -82 118 -5 9 -64 102 -130 205 -66 102 -122
191 -124 197 -2 5 -8 15 -13 21 -13 15 -122 187 -213 334 -79 128 -81 130
-117 131 l-36 0 -1 -680z"/>
</g>
</svg>
